<svg xmlns="http://www.w3.org/2000/svg" xmlns:xlink="http://www.w3.org/1999/xlink" width="100.002" height="74.218" viewBox="0 0 100.002 74.218">
  <defs>
    <linearGradient id="linear-gradient" x1="0.5" y1="1" x2="0.5" gradientUnits="objectBoundingBox">
      <stop offset="0" stop-color="gray" stop-opacity="0.251"/>
      <stop offset="0.54" stop-color="gray" stop-opacity="0.122"/>
      <stop offset="1" stop-color="gray" stop-opacity="0.102"/>
    </linearGradient>
  </defs>
  <g id="undraw_Ride_a_bicycle_2yok" transform="translate(0.007 0.002)">
    <path id="Trazado_257" data-name="Trazado 257" d="M122.564,68.422a6.161,6.161,0,0,0-.938,2.344c-1.792,6.7-6.208,12.085-11.237,15.933-2.13,1.63-4.722,3.816-4.256,6.738.251,1.569,1.352,2.725,2.169,4a12.445,12.445,0,0,1,1.454,9.519c-.93,3.646-3.529,7.048-2.725,10.734.5,2.269,2.181,3.884,3.8,5.272q3.79,3.246,7.821,6.081c1.8,1.267,3.718,2.5,5.817,2.661a12.472,12.472,0,0,0,5.415-1.257,12.409,12.409,0,0,0,4.344-2.458,23.585,23.585,0,0,1,2.35-2.471c2.109-1.528,4.818-.56,7.236.095a25.137,25.137,0,0,0,17.243-1.583c8.329-3.924,14.677-12.164,22.824-16.585,3.5-1.9,7.313-3.081,10.557-5.53a19.751,19.751,0,0,0,4.64-5.034,21.817,21.817,0,0,0,3.4-13.361c-.383-4.733-2.529-9.294-5.9-11.966-3.608-2.86-8.164-3.394-12.268-5.111-4.238-1.774-8.009-4.822-12.207-6.725a24.907,24.907,0,0,0-21.529.481c-4.569,2.316-9.2,7.721-14.288,8.131C132.657,68.616,125.4,64.978,122.564,68.422Z" transform="translate(-102.543 -57.51)" fill="#00bfa6" opacity="0.1"/>
    <path id="Trazado_258" data-name="Trazado 258" d="M910.754,505.83s1.774,3.482.328,5.387.132,7.1.132,7.1" transform="translate(-831.186 -464.014)" fill="none" stroke="#00bfa6" stroke-miterlimit="10" stroke-width="1"/>
    <path id="Trazado_259" data-name="Trazado 259" d="M909.7,484.357a.708.708,0,1,1-.493-1.217A2.052,2.052,0,0,1,909.7,484.357Z" transform="translate(-829.58 -442.991)" fill="#00bfa6"/>
    <path id="Trazado_260" data-name="Trazado 260" d="M914.381,505.83s-1.774,3.482-.328,5.387-.132,7.1-.132,7.1" transform="translate(-833.914 -464.014)" fill="none" stroke="#00bfa6" stroke-miterlimit="10" stroke-width="1"/>
    <path id="Trazado_261" data-name="Trazado 261" d="M917.14,484.357a.708.708,0,1,0,.493-1.217A2.052,2.052,0,0,0,917.14,484.357Z" transform="translate(-837.213 -442.991)" fill="#00bfa6"/>
    <path id="Trazado_262" data-name="Trazado 262" d="M917.14,484.357a.708.708,0,1,0,.493-1.217A2.052,2.052,0,0,0,917.14,484.357Z" transform="translate(-837.213 -442.991)" opacity="0.1"/>
    <path id="Trazado_263" data-name="Trazado 263" d="M926.954,505.83s1.774,3.482.328,5.387.132,7.1.132,7.1" transform="translate(-847.172 -464.014)" fill="none" stroke="#00bfa6" stroke-miterlimit="10" stroke-width="1"/>
    <path id="Trazado_264" data-name="Trazado 264" d="M925.9,484.357a.708.708,0,1,1-.493-1.217A2.052,2.052,0,0,1,925.9,484.357Z" transform="translate(-845.588 -442.991)" fill="#00bfa6"/>
    <path id="Trazado_265" data-name="Trazado 265" d="M921.288,511.877a.708.708,0,1,1,.488-1.217A2.049,2.049,0,0,1,921.288,511.877Z" transform="translate(-841.257 -467.887)" fill="#00bfa6"/>
    <path id="Trazado_266" data-name="Trazado 266" d="M921.748,535.577a.708.708,0,1,1,.488-1.217A2.018,2.018,0,0,1,921.748,535.577Z" transform="translate(-841.67 -489.35)" fill="#00bfa6"/>
    <path id="Trazado_267" data-name="Trazado 267" d="M897.108,554.115a.708.708,0,1,1-1.169-.6A2.046,2.046,0,0,1,897.108,554.115Z" transform="translate(-818.048 -506.705)" fill="#00bfa6"/>
    <path id="Trazado_268" data-name="Trazado 268" d="M900.106,506.414a.708.708,0,1,1-1.286-.261A2.048,2.048,0,0,1,900.106,506.414Z" transform="translate(-820.68 -463.777)" fill="#00bfa6"/>
    <path id="Trazado_269" data-name="Trazado 269" d="M900.106,506.414a.708.708,0,1,1-1.286-.261A2.048,2.048,0,0,1,900.106,506.414Z" transform="translate(-820.68 -463.777)" opacity="0.1"/>
    <path id="Trazado_270" data-name="Trazado 270" d="M930.573,505.83s-1.776,3.482-.328,5.39-.132,7.1-.132,7.1" transform="translate(-849.872 -464.014)" fill="none" stroke="#00bfa6" stroke-miterlimit="10" stroke-width="1"/>
    <path id="Trazado_271" data-name="Trazado 271" d="M933.34,484.357a.708.708,0,1,0,.493-1.217A2.052,2.052,0,0,0,933.34,484.357Z" transform="translate(-853.164 -442.991)" fill="#00bfa6"/>
    <path id="Trazado_272" data-name="Trazado 272" d="M933.34,484.357a.708.708,0,1,0,.493-1.217A2.052,2.052,0,0,0,933.34,484.357Z" transform="translate(-853.164 -442.991)" opacity="0.1"/>
    <path id="Trazado_273" data-name="Trazado 273" d="M930.247,518.56a2.076,2.076,0,0,0-.507,1.216,2.045,2.045,0,0,0,1.2-.52,2.076,2.076,0,0,0,.507-1.217A2.043,2.043,0,0,0,930.247,518.56Z" transform="translate(-849.929 -474.57)" fill="#00bfa6"/>
    <path id="Trazado_274" data-name="Trazado 274" d="M930.247,518.56a2.076,2.076,0,0,0-.507,1.216,2.045,2.045,0,0,0,1.2-.52,2.076,2.076,0,0,0,.507-1.217A2.043,2.043,0,0,0,930.247,518.56Z" transform="translate(-849.929 -474.57)" opacity="0.1"/>
    <path id="Trazado_275" data-name="Trazado 275" d="M939.357,551.39a2.076,2.076,0,0,0-.507,1.217,2.046,2.046,0,0,0,1.2-.52,2.076,2.076,0,0,0,.507-1.217A2.031,2.031,0,0,0,939.357,551.39Z" transform="translate(-858.115 -504.301)" fill="#00bfa6"/>
    <path id="Trazado_276" data-name="Trazado 276" d="M930.44,533.494a3.778,3.778,0,0,1,2.567-1.724" transform="translate(-850.558 -487.003)" fill="none" stroke="#00bfa6" stroke-miterlimit="10" stroke-width="1"/>
    <path id="Trazado_277" data-name="Trazado 277" d="M899.487,523.464a3.777,3.777,0,0,0-2.567-1.724" transform="translate(-818.99 -477.92)" fill="none" stroke="#00bfa6" stroke-miterlimit="10" stroke-width="1"/>
    <path id="Trazado_278" data-name="Trazado 278" d="M920.87,547.164a3.777,3.777,0,0,1,2.567-1.724" transform="translate(-841.958 -499.383)" fill="none" stroke="#00bfa6" stroke-miterlimit="10" stroke-width="1"/>
    <circle id="Elipse_78" data-name="Elipse 78" cx="0.277" cy="0.277" r="0.277" transform="translate(82.124 44.549)" fill="#00bfa6"/>
    <circle id="Elipse_79" data-name="Elipse 79" cx="0.277" cy="0.277" r="0.277" transform="translate(77.806 43.623)" fill="#00bfa6"/>
    <path id="Trazado_279" data-name="Trazado 279" d="M905.867,552.633a3.777,3.777,0,0,0-2.567-1.723" transform="translate(-824.767 -504.337)" fill="none" stroke="#00bfa6" stroke-miterlimit="10" stroke-width="1"/>
    <circle id="Elipse_80" data-name="Elipse 80" cx="0.277" cy="0.277" r="0.277" transform="translate(78.409 46.38)" fill="#00bfa6"/>
    <circle id="Elipse_81" data-name="Elipse 81" cx="0.277" cy="0.277" r="0.277" transform="translate(81.223 45.863)" fill="#00bfa6"/>
    <path id="Trazado_280" data-name="Trazado 280" d="M897.294,586.6s-2.573-.515-3.259-1.2-3.774-1.883-4.117-1.029-4.632,3.774-1.716,4.289,6.863.686,7.72.343S897.294,586.6,897.294,586.6Z" transform="translate(-811.693 -534.54)" fill="#a8a8a8"/>
    <path id="Trazado_281" data-name="Trazado 281" d="M888.2,610.608c2.917.515,6.862.686,7.72.343.653-.262,1.107-1.521,1.286-2.1l.086.018s-.515,2.059-1.373,2.4-4.8.171-7.72-.343c-.842-.149-1.083-.5-.992-.939C887.281,610.275,887.577,610.5,888.2,610.608Z" transform="translate(-811.694 -556.851)" opacity="0.2"/>
    <path id="Trazado_282" data-name="Trazado 282" d="M117.683,645.66s.85,1.115-.392,2.788-2.266,3.093-1.851,4.14c0,0,1.874-3.115,3.4-3.159S119.36,647.534,117.683,645.66Z" transform="translate(-110.871 -590.437)" fill="#00bfa6"/>
    <path id="Trazado_283" data-name="Trazado 283" d="M118.109,645.66a1.377,1.377,0,0,1,.173.349c1.488,1.748,2.28,3.379.851,3.421-1.332.039-2.93,2.42-3.313,3.022a1.282,1.282,0,0,0,.046.137s1.874-3.115,3.4-3.159S119.786,647.534,118.109,645.66Z" transform="translate(-111.297 -590.437)" opacity="0.1"/>
    <path id="Trazado_284" data-name="Trazado 284" d="M152.2,657.417c0,.391-.044.71-.1.71s-.1-.317-.1-.71.055-.2.108-.2S152.2,657.027,152.2,657.417Z" transform="translate(-143.809 -600.524)" fill="#ffd037"/>
    <path id="Trazado_285" data-name="Trazado 285" d="M153.383,661.857c-.344.188-.643.3-.668.252s.231-.238.575-.425.208-.051.234,0S153.726,661.669,153.383,661.857Z" transform="translate(-144.45 -604.505)" fill="#ffd037"/>
    <path id="Trazado_286" data-name="Trazado 286" d="M77.231,645.66s-.85,1.115.392,2.788,2.266,3.093,1.851,4.139c0,0-1.874-3.115-3.4-3.159S75.554,647.534,77.231,645.66Z" transform="translate(-74.908 -590.437)" fill="#00bfa6"/>
    <path id="Trazado_287" data-name="Trazado 287" d="M77.212,645.66a1.377,1.377,0,0,0-.173.349c-1.487,1.748-2.28,3.379-.854,3.42,1.332.038,2.93,2.42,3.313,3.022a1.281,1.281,0,0,1-.046.137s-1.874-3.115-3.4-3.159S75.535,647.534,77.212,645.66Z" transform="translate(-74.888 -590.437)" opacity="0.1"/>
    <path id="Trazado_288" data-name="Trazado 288" d="M78.56,657.417c0,.391.044.71.1.71s.1-.317.1-.71-.055-.2-.108-.2S78.56,657.027,78.56,657.417Z" transform="translate(-77.815 -600.524)" fill="#ffd037"/>
    <path id="Trazado_289" data-name="Trazado 289" d="M71.353,661.857c.344.188.643.3.668.252s-.231-.238-.575-.425-.208-.051-.234,0S71.009,661.669,71.353,661.857Z" transform="translate(-71.15 -604.505)" fill="#ffd037"/>
    <path id="Trazado_290" data-name="Trazado 290" d="M81.22,701.178a8.7,8.7,0,0,0,3.091-.583c.716-.51,3.65-1.115,3.831-.3s3.57,4.066.888,4.088-6.231-.418-6.945-.85S81.22,701.178,81.22,701.178Z" transform="translate(-80.205 -640.135)" fill="#a8a8a8"/>
    <path id="Trazado_291" data-name="Trazado 291" d="M89.088,715.452c-2.682.021-6.231-.418-6.946-.853-.544-.331-.761-1.521-.833-2.069H81.23s.15,1.916.865,2.351,4.264.875,6.946.853c.775-.006,1.041-.282,1.027-.689C89.96,715.294,89.664,715.447,89.088,715.452Z" transform="translate(-80.214 -651.489)" opacity="0.2"/>
    <path id="Trazado_292" data-name="Trazado 292" d="M251.276,159.389a13.346,13.346,0,0,0-3.117.367l-3.738-10.643-.049-.138.318-.086c.75-1.522-1.25-1.75-1.25-1.75l-.168.052a25.621,25.621,0,0,0-4.79-.5v-2.125a9.2,9.2,0,0,1,.674-3.413c.054-.134.1-.259.138-.379.008-.024.016-.049.023-.072l.013-.044c.009-.031.019-.063.027-.094s.012-.043.017-.065.012-.044.017-.065l.007-.031c.008-.032.015-.063.022-.094a.181.181,0,0,1,.008-.039c0-.013.011-.052.016-.079s.006-.036.009-.053.007-.039.01-.058a.153.153,0,0,1,.005-.036.448.448,0,0,0,.01-.068v-.018c0-.027.007-.054.009-.08a.19.19,0,0,0,0-.036v-.429a5.872,5.872,0,0,1-.016-1.089l.142-1.639a3.535,3.535,0,0,0,1.148-.561s.09-2.444.362-4.378a6.923,6.923,0,0,0-2.72-6.474c-.182-.139-.372-.273-.57-.4a3.035,3.035,0,0,0,.085-.4,2.411,2.411,0,0,1,.322-.427,4.862,4.862,0,0,1,.6-.374,2.036,2.036,0,0,0,.73-1.226,4.13,4.13,0,0,0-.1-2.842,2.816,2.816,0,0,0-2.569-1.57c-.343.014-.677.094-1.014.13a18.091,18.091,0,0,1-2.664-.237,1.65,1.65,0,0,0-.763.094,1.36,1.36,0,0,0-.459.374,3.849,3.849,0,0,0-.819,1.662c-.109.455-.109.868-.721.935-.688.079-2.9-.347-2.433,1,.222.635,1.288.655,1.834,1.122.284.243.415.6.727.819l.012.007a5.574,5.574,0,0,0-5.143,3.436c-2.082,4.373-3.332,5.8-5,6.94-1.586,1.086-2.323,4.583-2.391,4.917-.439,1.022-.678,2.9.724,6.015,1.188,2.642,2.222,4.441,2.951,5.792l-.143-.012a8.83,8.83,0,0,1-.906-.111c-1.175-.206-4.136-.636-4.933.094-1,.913-.667,2.511,2,2.739a16.439,16.439,0,0,0,1.834.039V157.8l-.058.033h0c-.522.287-1.025.544-1.364.714l-.124.062a2.537,2.537,0,0,1-.243-.468l-2.754,1.67,1.367,1.047-1.39,1.325-.13-.108a12.911,12.911,0,0,0-8.009-2.72c-6.767,0-12.252,5.008-12.252,11.185s5.486,11.185,12.252,11.185c6.061,0,11.093-4.022,12.078-9.294a33.122,33.122,0,0,0,5.923.017v1.289h6.248v-1.558l.156-.009c2.811-.187,1.353-1.331,1.353-1.331a4.033,4.033,0,0,1-1.853-.62c-.175-.1-.356-.195-.54-.281a2.239,2.239,0,0,0-.145-1.668L244.363,154.7l2.178,5.555-.145.055a11.21,11.21,0,0,0-7.373,10.263c0,6.178,5.486,11.185,12.252,11.185s12.253-5.012,12.253-11.185S258.04,159.389,251.276,159.389Zm.653,19.571-.507-7.219a1.426,1.426,0,0,0,.275-.064l4.187,6.162A9.832,9.832,0,0,1,251.929,178.96Zm-8.172-3.449,6.412-4.243.012.015-2.63,7A9.185,9.185,0,0,1,243.757,175.511Zm11.821-12.432-3.519,6.419a1.37,1.37,0,0,0-.583-.292l-.085-.242.242-6.865a9.885,9.885,0,0,1,3.945.979Zm-4.373,5.35-2.143-6.1a10.124,10.124,0,0,1,2.172-.235h.195Zm-3.81-5.577c.048-.02.1-.037.144-.057l2.644,6.756a1.22,1.22,0,0,0-.253.337l-6.778-3.47a8.471,8.471,0,0,1,.873-1.169l.756-.758A9.347,9.347,0,0,1,247.4,162.851Zm-4.334,3.733,6.807,3.485a1.117,1.117,0,0,0-.047.316v.048l-7.833-.127a7.836,7.836,0,0,1,1.069-3.72Zm9.5,3.822,7.5-2.388a7.835,7.835,0,0,1-1.019,7.041l-6.679-3.886a1.134,1.134,0,0,0,.2-.637,1.12,1.12,0,0,0-.013-.13Zm7.443-2.569-7.483,2.381a2.452,2.452,0,0,0-.3-.57l3.548-6.48a8.7,8.7,0,0,1,4.235,4.67Zm-17.619-18.172.526,1.341-9.076,2.579-.094-1.729,5.171-1.4a.97.97,0,0,1-.021.32,2.9,2.9,0,0,0,.352-.41l3.084-.836ZM207.545,178.92l-.507-7.2a1.453,1.453,0,0,0,.3-.036l4.157,6.123a9.835,9.835,0,0,1-3.954,1.115Zm-8.172-3.447,6.412-4.239.012.015-2.63,7A9.185,9.185,0,0,1,199.373,175.473Zm-1.771-5.206a7.838,7.838,0,0,1,1.071-3.72l6.922,3.544a1.119,1.119,0,0,0-.07.3Zm13.592-7.227-3.207,5.856-.491.468a1.44,1.44,0,0,0-.48-.082H207l.25-7.22A9.881,9.881,0,0,1,211.194,163.04Zm3.068,2.4a8.183,8.183,0,0,1,1.356,2.356l-6.741,2.145Zm-5.774,4.826,7.2-2.289q.1.31.187.629c.012.049.023.094.034.145-3.235.62-6.252,1.3-7.514,1.6Zm-1.7-.986a1.425,1.425,0,0,0-.575.144l-2.726-6.8a10.008,10.008,0,0,1,3.362-.575h.195Zm-.757.253a1.26,1.26,0,0,0-.357.379l-6.9-3.536a8.466,8.466,0,0,1,.872-1.172l.758-.761a9.378,9.378,0,0,1,2.891-1.747Zm9.887,2.633a7.994,7.994,0,0,1-1.255,2.852l-6.555-3.814C209.445,171.4,212.592,171.843,215.918,172.169Zm2.927-4.1a10.759,10.759,0,0,0-2.358-4.489l.321-.268,2.794,2.517V168.1l-.723.118c-.011-.05-.021-.1-.033-.147Zm.757-4.78-.061-.054.061.046ZM221.77,160l.007,0,.153-.094.068-.042.075-.046.085-.051.079-.047.1-.057.08-.047.118-.067.072-.041.126-.07a4.236,4.236,0,0,0,.341,1.234l.04,3.351a6.253,6.253,0,0,1-1.339-2.087Zm11.619-14.683c.246.2.406.327.406.327s.522.434,1.116,1c-.528,0-1.019,0-1.45.01Zm.181,3.334c.847.027,1.948.054,3.12.062.008.023.016.047.021.068a5.82,5.82,0,0,1,.7.249l-3.757,1.177Zm.955-6.145a22.359,22.359,0,0,0-1.717-3.285,5.405,5.405,0,0,1,3.158-3.4l-.012.128-.006.069c-.055.59-.118,1.309-.171,2.048v.043q-.009.132-.019.265v.046l-.007.109-.007.107-.006.094-.012.187v.053a1.424,1.424,0,0,1-.009.161v.063q-.005.093-.01.193v.011q-.006.108-.01.213v.032q0,.093-.008.195v.015q-.009.214-.014.418v.015c0,.136-.006.267-.008.393v.375h0v.173c0,.1.007.2.013.294v.017c.006.088.014.169.023.241v.017q.006.046.013.087v.015c.006.03.011.059.018.084v.01a.611.611,0,0,0,.017.059l.005.016a.42.42,0,0,0,.023.053,7.755,7.755,0,0,1,.294,2.318c-.893-1.064-1.548-1.935-1.548-1.935ZM221.77,167.639v-2.7l1.363,1.042h0l.019,1.656c-.436.039-.9.094-1.383.152Zm0-14c.353-.041.7-.094,1.035-.144a2.671,2.671,0,0,1,.057.7v1.426h.07a13.705,13.705,0,0,0-1.162.76v-2.745Zm-8.814,10.521-4.482,4.271,2.9-5.3a9.329,9.329,0,0,1,1.449.92C212.87,164.085,212.912,164.126,212.956,164.157ZM197.6,170.5v-.042l7.926.129a1.131,1.131,0,0,0,.151.484l-6.421,4.249A7.911,7.911,0,0,1,197.6,170.5Zm9.252,8.446a9.993,9.993,0,0,1-3.491-.623l2.6-6.921a1.4,1.4,0,0,0,.872.313l.507,7.217C207.176,178.94,207.014,178.945,206.851,178.945Zm4.828-1.242-4.135-6.086a1.348,1.348,0,0,0,.425-.266l6.58,3.829a8.983,8.983,0,0,1-2.869,2.522Zm16.746-10.762a2.9,2.9,0,0,0-.737-.094h-.166a2.864,2.864,0,0,0-1.214.265,6.353,6.353,0,0,1,.129-3.269,9.93,9.93,0,0,0,.527-1.832l.847-4.416,15.752-4.931.193.492Zm13.558,3.6V170.5l7.86.128a3.413,3.413,0,0,0,.213.484l-6.421,4.249A7.911,7.911,0,0,1,241.982,170.537Zm9.252,8.446a9.995,9.995,0,0,1-3.491-.623l2.6-6.921a1.4,1.4,0,0,0,.872.313l.507,7.218Q251.479,178.983,251.235,178.983Zm4.829-1.241-4.176-6.145a1.321,1.321,0,0,0,.359-.269l6.691,3.892A8.987,8.987,0,0,1,256.063,177.742Z" transform="translate(-182.126 -111.795)" fill="url(#linear-gradient)"/>
    <path id="Trazado_293" data-name="Trazado 293" d="M656.085,590.656l-.635-9.925-.013-.021-.641.223-2.949,8.6-4.689-3.325,7.471-5.415.007-.021.042-.015.482-.35-7.831-4.391-1.919,2.109.3,1.977,9,.16v.2l-9.173-.164-.345-2.242,2.625-2.884,3.925-4.579.07.19.831-.912,3.1.555V570.3l.2.006v.153l4.6.823-4.291,8.582-.626.453v.107l9.916-3.455-1.177,9.247-8.415-5.36-.3-.166,4.962,8Zm-.405-9.564.593,9.264,4.06-1.762Zm-8.168,5.114,4.237,3,2.772-8.084Zm8.346-5.643.212.119,8.146,5.191,1.095-8.6Zm-.72-.73.255.411.045-.032.3-9.584-3.015-.541L651.9,571Zm-7.643-3.959,7.587,4.258-.132-.216-3.2-8.746-3.771,4.145Zm8.452-5.21-.3,9.4.458-.332,4.148-8.3Z" transform="translate(-591.85 -523.292)" fill="#535461"/>
    <path id="Trazado_294" data-name="Trazado 294" d="M229.886,590.238l-.636-9.93-.013-.021-.641.223-2.948,8.6-4.689-3.324,7.469-5.415.007-.021.043-.015.482-.35-7.831-4.391-1.918,2.109.3,1.977,9,.164v.2l-9.173-.164L219,577.641l2.626-2.885,3.929-4.582.07.19.831-.913,3.088.554v-.123l.2.006v.153l4.6.823-4.287,8.578-.626.453V580l9.915-3.455-1.177,9.247-8.415-5.36-.3-.166,4.962,8Zm-.406-9.565.593,9.264,4.06-1.762Zm-8.169,5.113,4.237,3,2.772-8.084Zm8.346-5.643.212.119,8.146,5.191,1.095-8.6Zm-.72-.73.254.411.045-.032.3-9.584-3.015-.539-.827.912Zm-7.646-3.96,7.587,4.258-.132-.216-3.2-8.746-3.77,4.143Zm8.455-5.21-.3,9.4.458-.332,4.148-8.3Z" transform="translate(-204.017 -522.915)" fill="#535461"/>
    <rect id="Rectángulo_86" data-name="Rectángulo 86" width="6.083" height="1.926" transform="translate(32.511 48.154) rotate(44.62)" fill="#00bfa6"/>
    <rect id="Rectángulo_87" data-name="Rectángulo 87" width="6.083" height="1.926" transform="translate(32.511 48.154) rotate(44.62)" opacity="0.1"/>
    <path id="Trazado_295" data-name="Trazado 295" d="M425.63,496.517a25.575,25.575,0,0,0,3.484-2.18,13.22,13.22,0,0,1,1.879-1.372l3.153-1.919,6.59-.507.3,1.115s.507,1.622-4.562,3.041a20.694,20.694,0,0,0-7.6,3.65S425.63,499.458,425.63,496.517Z" transform="translate(-392.528 -449.931)" fill="#db8b8b"/>
    <path id="Trazado_296" data-name="Trazado 296" d="M429.143,549.141c-.179.137-.269.216-.269.216s-3.244,1.115-3.244-1.825c0,0,.157-.083.406-.222a2.805,2.805,0,0,0,2.391,1.337h.344Z" transform="translate(-392.203 -501.1)" opacity="0.1"/>
    <path id="Trazado_297" data-name="Trazado 297" d="M440.945,492.179c-.282.6-1.254,1.578-4.467,2.478a21.964,21.964,0,0,0-7.335,3.434c-.179.137-.269.216-.269.216s-3.244,1.115-3.244-1.825c0,0,.157-.083.406-.222a21.3,21.3,0,0,0,3.076-1.962,13.174,13.174,0,0,1,1.879-1.372l3.153-1.919,1.174-.09,5.416-.417.3,1.115A.824.824,0,0,1,440.945,492.179Z" transform="translate(-392.528 -449.895)" opacity="0.05"/>
    <path id="Trazado_298" data-name="Trazado 298" d="M402.317,543l-2.687,1.774,7.867,6.59s1.156-.71.547-1.521a6.479,6.479,0,0,1-2.129-4.157l-.608-.811h-.344A2.806,2.806,0,0,1,402.316,543Z" transform="translate(-368.775 -497.486)" fill="#abb1d1"/>
    <path id="Trazado_299" data-name="Trazado 299" d="M526.835,492.179c-1.622-.784-5.582-.868-5.582-.868l-.043-.394,5.416-.417.3,1.115A.839.839,0,0,1,526.835,492.179Z" transform="translate(-478.838 -449.627)" opacity="0.1"/>
    <path id="Trazado_300" data-name="Trazado 300" d="M510.847,397.652s4.765.1,5.982,1.115L516.22,386.5h-6.59Z" transform="translate(-468.394 -355.806)" fill="#abb1d1"/>
    <path id="Trazado_301" data-name="Trazado 301" d="M510.847,397.152s4.765.1,5.982,1.115L516.22,386h-6.59Z" transform="translate(-468.394 -355.353)" opacity="0.05"/>
    <path id="Trazado_302" data-name="Trazado 302" d="M641.642,556.12a11.911,11.911,0,0,0-3.184.43,11.692,11.692,0,0,0-1.567.555,11.933,11.933,0,1,0,4.751-.984Zm-.041,20.894a9.009,9.009,0,0,1-3.741-17.2,8.88,8.88,0,0,1,1.476-.524,9.008,9.008,0,1,1,2.266,17.727Z" transform="translate(-577.991 -510.936)" fill="#535461"/>
    <path id="Trazado_303" data-name="Trazado 303" d="M556.984,422.033s11.928-.405,12.171,1.137-11.928.892-11.928.892A1.633,1.633,0,0,1,556.984,422.033Z" transform="translate(-511.245 -387.598)" fill="#535461"/>
    <path id="Trazado_304" data-name="Trazado 304" d="M556.984,422.033s11.928-.405,12.171,1.137-11.928.892-11.928.892A1.633,1.633,0,0,1,556.984,422.033Z" transform="translate(-511.245 -387.598)" opacity="0.05"/>
    <circle id="Elipse_82" data-name="Elipse 82" transform="translate(38.741 64.496)" fill="none" stroke="#c1272d" stroke-miterlimit="10" stroke-width="1"/>
    <rect id="Rectángulo_88" data-name="Rectángulo 88" width="2.11" height="18.338" transform="translate(35.133 39.383)" fill="#00bfa6"/>
    <path id="Trazado_305" data-name="Trazado 305" d="M445.45,483.28v1.412c-.7.091-1.419.149-2.11.171V483.28Z" transform="translate(-408.207 -443.085)" opacity="0.1"/>
    <path id="Trazado_306" data-name="Trazado 306" d="M407.732,464.27a7.866,7.866,0,0,1-.882-.119c-1.144-.219-4.027-.678-4.8.1-.973.973-.649,2.677,1.948,2.921s7.059-.406,7.952-1.38A8.064,8.064,0,0,0,407.732,464.27Z" transform="translate(-370.553 -425.527)" fill="#535461"/>
    <path id="Trazado_307" data-name="Trazado 307" d="M387.4,414.267l22.152-6.9.73,1.7-22.72,7.789Z" transform="translate(-351.496 -369.233)" fill="#00bfa6"/>
    <path id="Trazado_308" data-name="Trazado 308" d="M452.23,443.122l15.985-15.742.892,1.3-15.255,15.9Z" transform="translate(-410.056 -387.779)" fill="#00bfa6"/>
    <path id="Trazado_309" data-name="Trazado 309" d="M703.055,563.088a8.9,8.9,0,0,0-1.476.524l-.969-2.708a11.691,11.691,0,0,1,1.567-.555Z" transform="translate(-641.202 -512.956)" opacity="0.1"/>
    <path id="Trazado_310" data-name="Trazado 310" d="M596.9,399.682l-1.135.649L587.845,378.2l-.355-.991,1.867-1.055.467,1.458Z" transform="translate(-532.336 -341.71)" fill="#00bfa6"/>
    <path id="Trazado_311" data-name="Trazado 311" d="M589.824,377.608l-1.979.588-.355-.991,1.867-1.055Z" transform="translate(-532.039 -340.656)" opacity="0.1"/>
    <path id="Trazado_312" data-name="Trazado 312" d="M561.566,431.074l11.117-3.814s1.948.243,1.217,1.866l-11.2,3.326S561,432.615,561.566,431.074Z" transform="translate(-515.547 -392.479)" fill="#535461"/>
    <path id="Trazado_313" data-name="Trazado 313" d="M227.208,565.022a11.884,11.884,0,0,0-2.4-4.925,11.9,11.9,0,1,0,2.4,4.925ZM215.53,576.615a9,9,0,1,1,8.861-7.382A9,9,0,0,1,215.53,576.615Z" transform="translate(-190.218 -510.578)" fill="#535461"/>
    <path id="Trazado_314" data-name="Trazado 314" d="M410.678,650.1a12.084,12.084,0,0,1-.144,1.855c-.974-.068-1.979-.169-2.965-.271a9.082,9.082,0,0,0-.08-3.638c.96-.2,1.94-.4,2.9-.572A11.921,11.921,0,0,1,410.678,650.1Z" transform="translate(-375.766 -591.942)" opacity="0.1"/>
    <path id="Trazado_315" data-name="Trazado 315" d="M445.45,642.89v2.156h-2.11v-1.825C444.07,643.095,444.78,642.982,445.45,642.89Z" transform="translate(-408.207 -587.657)" opacity="0.1"/>
    <path id="Trazado_316" data-name="Trazado 316" d="M326.841,645.116s17.04-4.461,18.419-2.759,2.84,3.975-1.457,4.786-17.284-1.38-17.284-1.38Z" transform="translate(-302.785 -587.001)" fill="#00bfa6"/>
    <path id="Trazado_317" data-name="Trazado 317" d="M381.7,585.8l-2.165,1.982a9.026,9.026,0,0,0-1.294-1.346l2.022-2.112A12.04,12.04,0,0,1,381.7,585.8Z" transform="translate(-349.281 -534.677)" opacity="0.1"/>
    <path id="Trazado_318" data-name="Trazado 318" d="M252.94,488.707,265.679,475.4l.407,3.083-12.5,11.441Z" transform="translate(-229.273 -431.179)" fill="#00bfa6"/>
    <circle id="Elipse_83" data-name="Elipse 83" cx="1.299" cy="1.299" r="1.299" transform="translate(22.506 56.838)" opacity="0.1"/>
    <circle id="Elipse_84" data-name="Elipse 84" cx="1.299" cy="1.299" r="1.299" transform="translate(22.354 56.838)" fill="#535461"/>
    <circle id="Elipse_85" data-name="Elipse 85" cx="1.299" cy="1.299" r="1.299" transform="translate(62.503 56.725)" opacity="0.1"/>
    <circle id="Elipse_86" data-name="Elipse 86" cx="1.299" cy="1.299" r="1.299" transform="translate(62.578 56.876)" fill="#535461"/>
    <circle id="Elipse_87" data-name="Elipse 87" cx="2.596" cy="2.596" r="2.596" transform="translate(39.804 54.282)" opacity="0.1"/>
    <circle id="Elipse_88" data-name="Elipse 88" cx="2.596" cy="2.596" r="2.596" transform="translate(39.956 54.282)" fill="#535461"/>
    <rect id="Rectángulo_89" data-name="Rectángulo 89" width="1.38" height="4.82" rx="0.69" transform="matrix(0.801, -0.599, 0.599, 0.801, 41.247, 56.983)" fill="#00bfa6"/>
    <path id="Trazado_319" data-name="Trazado 319" d="M601.373,296.412l-.241,3.053a6.859,6.859,0,0,0,.015,1.161,4.334,4.334,0,0,1-.335,1.852,10.636,10.636,0,0,0-.656,3.64v3.474l-2.332-.406s.1-4.866-.3-5.677.3-8.009.3-8.009Z" transform="translate(-547.785 -273.35)" fill="#db8b8b"/>
    <path id="Trazado_320" data-name="Trazado 320" d="M601.263,297.925l-.122,1.54a6.841,6.841,0,0,0,.016,1.16,4.34,4.34,0,0,1-.335,1.853,10.634,10.634,0,0,0-.656,3.64v3.474l-2.332-.406s.1-4.866-.3-5.677c-.287-.575-.015-4.353.168-6.51.076-.887.136-1.5.136-1.5l3.548.912Z" transform="translate(-547.795 -273.35)" opacity="0.05"/>
    <path id="Trazado_321" data-name="Trazado 321" d="M477.893,483.137l-.877,4.988a11.366,11.366,0,0,1-.507,1.957,8.715,8.715,0,0,0,.064,4.45c.111.474.2.775.2.775l-2.636,1.419-.811-.608v-.406l-.1-9.023a6.374,6.374,0,0,1,0-4.359,3.429,3.429,0,0,0,.241-.833,22.594,22.594,0,0,0,.266-2.614s1.622-2.737,3.548-.912a3.522,3.522,0,0,1,1.036,2.393A7.2,7.2,0,0,1,477.893,483.137Z" transform="translate(-435.018 -438.574)" fill="#db8b8b"/>
    <path id="Trazado_322" data-name="Trazado 322" d="M483.86,480.332a12.557,12.557,0,0,1-4.85,1.133,22.588,22.588,0,0,0,.266-2.614s1.622-2.737,3.548-.912A3.522,3.522,0,0,1,483.86,480.332Z" transform="translate(-440.586 -437.781)" opacity="0.1"/>
    <path id="Trazado_323" data-name="Trazado 323" d="M439.114,348.606a18.55,18.55,0,0,0-3.041,2.028c-1.622,1.318-5.677,1.419-5.677,1.419v-1.521c.1-1.825-1.622-3.853-3.954-9.53-1.489-3.625-1.077-5.677-.584-6.691a2.437,2.437,0,0,1,.584-.811l12.673,2.433.453,1.358.966,2.9a25.312,25.312,0,0,0-4.157.507c-.608.3-.2,3.041-.2,3.041C435.566,346.578,439.114,348.606,439.114,348.606Z" transform="translate(-392.315 -307.981)" fill="#abb1d1"/>
    <path id="Trazado_324" data-name="Trazado 324" d="M603.974,296.412l-.12,1.513a3.065,3.065,0,0,1-3.023-1.107,4.663,4.663,0,0,0-.541.181c.076-.887.136-1.5.136-1.5Z" transform="translate(-550.396 -273.054)" opacity="0.1"/>
    <path id="Trazado_325" data-name="Trazado 325" d="M442.466,337.292c-.048.473-.048.771-.048.771s-2.332,1.926-6.286-1.014a9.8,9.8,0,0,0-7.5-2.129s.042-.235.126-.608a2.437,2.437,0,0,1,.584-.811l12.673,2.433Z" transform="translate(-395.199 -307.539)" opacity="0.1"/>
    <path id="Trazado_326" data-name="Trazado 326" d="M451.084,189.067c-.265,2.063-.353,4.664-.353,4.664a2.9,2.9,0,0,1-4.157-.507,5.6,5.6,0,0,0-3.725,4.2,11.228,11.228,0,0,0-.432,2.8,3.392,3.392,0,0,1-1.752.608,6.684,6.684,0,0,1-4.534-1.622,9.8,9.8,0,0,0-7.5-2.129s.71-4.055,2.332-5.272,2.839-2.737,4.866-7.4,6.184-3.548,6.184-3.548.2-.912,3.954,0a6.11,6.11,0,0,1,2.471,1.309A7.728,7.728,0,0,1,451.084,189.067Z" transform="translate(-395.486 -169.118)" fill="#fff"/>
    <path id="Trazado_327" data-name="Trazado 327" d="M565.068,196.574c-.005.135-.016.285-.034.452-.2,1.825-.406,1.622-2.636,2.028-1.387.252-2.108-.906-2.455-1.819a5.747,5.747,0,0,1-.283-1.02l4.866-.811S565.109,195.241,565.068,196.574Z" transform="translate(-513.656 -182.409)" fill="#db8b8b"/>
    <path id="Trazado_328" data-name="Trazado 328" d="M503.057,275.682a11.229,11.229,0,0,0-.432,2.8,3.392,3.392,0,0,1-1.752.608.948.948,0,0,1-.073-.2,8.724,8.724,0,0,0-1.723-2.534,4.622,4.622,0,0,1-1.217-2.535l-1.673-4.917-.558-.456s2.332-1.825,4.359-.3,1.419,4.765,1.419,4.765l.406,1.115A6.569,6.569,0,0,1,503.057,275.682Z" transform="translate(-455.718 -247.92)" opacity="0.05"/>
    <path id="Trazado_329" data-name="Trazado 329" d="M498.63,267.44l2.23,5.373a4.622,4.622,0,0,0,1.217,2.535,8.726,8.726,0,0,1,1.724,2.534c.2.912,3.041,3.346,3.041,3.346s2.636,2.433,2.839,3.346c0,0,2.433.71,2.129,2.129a2.425,2.425,0,0,0,0-3.548,42.084,42.084,0,0,1-4.258-5.272s-1.419-3.751-2.737-4.866l-.406-1.115s.608-3.244-1.419-4.765S498.63,267.44,498.63,267.44Z" transform="translate(-458.657 -247.256)" fill="#db8b8b"/>
    <path id="Trazado_330" data-name="Trazado 330" d="M481.077,647.679l-2.636,1.419-.811-.608v-.406a6.141,6.141,0,0,0,2.59-.782c.243-.138.472-.274.656-.393C480.983,647.379,481.077,647.679,481.077,647.679Z" transform="translate(-439.297 -591.299)" opacity="0.1"/>
    <path id="Trazado_331" data-name="Trazado 331" d="M484.118,221.616l1.419,5.576s-4.359.71-5.272,0a6.449,6.449,0,0,0-2.636-.912s1.825-5.272,2.839-5.88S484.118,221.616,484.118,221.616Z" transform="translate(-439.425 -205)" opacity="0.1"/>
    <path id="Trazado_332" data-name="Trazado 332" d="M484.118,219.616l1.419,5.576s-4.359.71-5.272,0a6.448,6.448,0,0,0-2.636-.912s1.825-5.272,2.839-5.88S484.118,219.616,484.118,219.616Z" transform="translate(-439.425 -203.187)" fill="#fff"/>
    <path id="Trazado_333" data-name="Trazado 333" d="M565.068,195.574a3.548,3.548,0,0,1-5.125.661,5.745,5.745,0,0,1-.283-1.02l4.866-.811S565.109,194.241,565.068,195.574Z" transform="translate(-513.656 -181.489)" opacity="0.1"/>
    <path id="Trazado_334" data-name="Trazado 334" d="M556.727,152.257a3.548,3.548,0,0,1-7.1,0v-.176a3.549,3.549,0,0,1,7.1.176Z" transform="translate(-504.628 -139.384)" fill="#db8b8b"/>
    <path id="Trazado_335" data-name="Trazado 335" d="M556.772,152.257a3.53,3.53,0,0,1-.134.967,1.366,1.366,0,0,1-.819-.075c-.379-.149-.7-.406-1.068-.59a5.625,5.625,0,0,0-3.38-.245,2.1,2.1,0,0,1-1.646-.195.5.5,0,0,1-.044-.038,3.549,3.549,0,1,1,7.1.176Z" transform="translate(-504.674 -139.384)" opacity="0.1"/>
    <path id="Trazado_336" data-name="Trazado 336" d="M523.75,124.275c.216.677,1.253.7,1.785,1.2.277.26.406.643.71.874a2.108,2.108,0,0,0,1.571.174,5.669,5.669,0,0,1,3.225.221c.347.165.658.4,1.02.531a1.153,1.153,0,0,0,1.105-.088c.235-.192.321-.507.534-.718a5.635,5.635,0,0,1,.584-.406,2.214,2.214,0,0,0,.71-1.308,4.774,4.774,0,0,0-.1-3.031,2.73,2.73,0,0,0-2.5-1.674c-.334.015-.659.1-.992.138a16.549,16.549,0,0,1-2.593-.252,1.478,1.478,0,0,0-.743.1,1.356,1.356,0,0,0-.447.4,4.269,4.269,0,0,0-.8,1.772c-.1.486-.106.926-.7,1C525.442,123.3,523.292,122.843,523.75,124.275Z" transform="translate(-481.278 -113.598)" fill="#472727"/>
    <path id="Trazado_337" data-name="Trazado 337" d="M456.13,292s2.636.71,3.447,2.535a4.21,4.21,0,0,0,3,2.158" transform="translate(-419.906 -269.932)" opacity="0.05"/>
    <rect id="Rectángulo_90" data-name="Rectángulo 90" width="6.083" height="1.926" transform="translate(39.812 58.554)" fill="#00bfa6"/>
    <rect id="Rectángulo_91" data-name="Rectángulo 91" width="6.083" height="1.926" transform="translate(39.812 58.554)" opacity="0.1"/>
    <path id="Trazado_338" data-name="Trazado 338" d="M469.433,646.234a3.68,3.68,0,0,0,1.063-.734,8.874,8.874,0,0,0,2.6,1.9,6.127,6.127,0,0,1,1.175.584,3.738,3.738,0,0,0,1.8.662s1.419,1.217-1.318,1.419a74.737,74.737,0,0,1-9.124-.507l.406-2.534h0A6.161,6.161,0,0,0,469.433,646.234Z" transform="translate(-428.641 -590.155)" fill="#abb1d1"/>
  </g>
</svg>
